<?xml version="1.0" encoding="UTF-8"?>
<svg width="85px" height="67px" viewBox="0 0 85 67" version="1.1" xmlns="http://www.w3.org/2000/svg" xmlns:xlink="http://www.w3.org/1999/xlink">
    <!-- Generator: Sketch 46.2 (44496) - http://www.bohemiancoding.com/sketch -->
    <title>Page 1</title>
    <desc>Created with Sketch.</desc>
    <defs></defs>
    <g id="Setup-Wizard" stroke="none" stroke-width="1" fill="none" fill-rule="evenodd">
        <g id="[P]-Setup-Wizard---1.-Welcome" transform="translate(-568.000000, -106.000000)" fill="#23282D">
            <g id="Theme-Title" transform="translate(322.000000, 101.000000)">
                <path d="M319.625182,60 L257.362137,60 C256.377835,60 255.529846,59.3183396 255.325377,58.3643298 L246.045042,15.0969967 C245.870689,14.2736517 246.21147,13.4298411 246.912052,12.957559 C247.611049,12.4837027 248.527195,12.4837027 249.234117,12.9449648 L269.447971,26.3199926 L286.908633,5.70015814 C287.701146,4.76661395 289.298854,4.76661395 290.091367,5.70015814 L307.552029,26.3199926 L327.765883,12.9449648 C328.472805,12.4774056 329.388951,12.4837027 330.087948,12.957559 C330.78853,13.4298411 331.129311,14.2736517 330.954958,15.0969967 L321.661943,58.3643298 C321.457474,59.3183396 320.609484,60 319.625182,60 Z M259.696857,55 L317.296942,55 L325,20.4430375 L307.874687,31.3621653 C307.014313,31.9125725 305.857847,31.7553133 305.1866,30.9972054 L288.5031,12 L271.8134,30.991271 C271.148354,31.7508625 269.991888,31.9066381 269.125313,31.356231 L252,20.4385868 L259.696857,55 Z M320,69.5 C320,68.1157654 319.071806,67 317.920275,67 L259.079725,67 C257.93453,67 257,68.1157654 257,69.5 C257,70.8842346 257.93453,72 259.079725,72 L317.920275,72 C319.06547,72 320,70.8842346 320,69.5 Z" id="Page-1"></path>
            </g>
        </g>
    </g>
</svg>