<?xml version="1.0" encoding="UTF-8" standalone="no"?>
<svg width="20px" height="20px" viewBox="0 0 20 20" version="1.1" xmlns="http://www.w3.org/2000/svg" xmlns:xlink="http://www.w3.org/1999/xlink">
    <!-- Generator: Sketch 41.2 (35397) - http://www.bohemiancoding.com/sketch -->
    <title>icon-error</title>
    <desc>Created with Sketch.</desc>
    <defs></defs>
    <g id="Prototyping" stroke="none" stroke-width="1" fill="none" fill-rule="evenodd">
        <g id="Care---Feedback-States" transform="translate(-447.000000, -473.000000)" fill="#FFFFFF">
            <g id="Messages" transform="translate(429.000000, 266.000000)">
                <g id="Error" transform="translate(0.000000, 182.000000)">
                    <g id="Content" transform="translate(18.000000, 15.000000)">
                        <path d="M17.0709333,12.9288368 L17.0709333,12.9288368 C14.2104,10.0685701 9.90933333,9.21337011 6.1728,10.7611034 C2.43653333,12.3091034 0,15.9549701 0,19.9997701 C0,24.0445701 2.43653333,27.6915034 6.1728,29.2384368 C9.90933333,30.7861701 14.2104,29.9309701 17.0709333,27.0717701 C18.9469333,25.1965701 20,22.6528368 20,19.9997701 C20,17.3477701 18.9469333,14.8040368 17.0709333,12.9288368 Z M13.8749333,25.0840368 L13.8749333,25.0840368 C13.7021333,25.2560368 13.4218667,25.2560368 13.248,25.0840368 L10.3749333,22.2112368 C10.2021333,22.0392368 9.92186667,22.0392368 9.748,22.2112368 L6.68426667,25.2757701 C6.51146667,25.4477701 6.2312,25.4477701 6.05733333,25.2757701 L4.724,23.9424368 C4.552,23.7696368 4.552,23.4893701 4.724,23.3155034 L7.78853333,20.2507034 C7.96053333,20.0779034 7.96053333,19.7976368 7.78853333,19.6237701 L4.91573333,16.7507034 C4.74373333,16.5779034 4.74373333,16.2976368 4.91573333,16.1237701 L6.16053333,14.8789701 C6.33333333,14.7069701 6.6136,14.7069701 6.78746667,14.8789701 L9.66053333,17.7517701 C9.83333333,17.9237701 10.1136,17.9237701 10.2874667,17.7517701 L13.3168,14.7227034 C13.4896,14.5507034 13.7698667,14.5507034 13.9437333,14.7227034 L15.2770667,16.0560368 C15.4490667,16.2288368 15.4490667,16.5091034 15.2770667,16.6829701 L12.2469333,19.7112368 C12.0749333,19.8840368 12.0749333,20.1643034 12.2469333,20.3384368 L15.1114667,23.2133701 C15.2832,23.3861701 15.2832,23.6664368 15.1114667,23.8403034 L13.8749333,25.0840368 Z" id="icon-error"></path>
                    </g>
                </g>
            </g>
        </g>
    </g>
</svg>