<?xml version="1.0" encoding="UTF-8" standalone="no"?>
<svg width="19px" height="19px" viewBox="0 0 19 19" version="1.1" xmlns="http://www.w3.org/2000/svg" xmlns:xlink="http://www.w3.org/1999/xlink">
    <!-- Generator: Sketch 41.2 (35397) - http://www.bohemiancoding.com/sketch -->
    <title>icon-info</title>
    <desc>Created with Sketch.</desc>
    <defs></defs>
    <g id="Prototyping" stroke="none" stroke-width="1" fill="none" fill-rule="evenodd">
        <g id="Care---Feedback-States" transform="translate(-447.000000, -565.000000)" fill="#FFFFFF">
            <g id="Messages" transform="translate(429.000000, 266.000000)">
                <g id="Info" transform="translate(0.000000, 273.000000)">
                    <g id="Content" transform="translate(18.000000, 15.000000)">
                        <path d="M2.775,13.825 C-0.925,17.525 -0.925,23.525 2.775,27.225 C6.475,30.925 12.475,30.925 16.175,27.225 C19.875,23.525 19.875,17.525 16.175,13.825 C12.475,10.125 6.475,10.125 2.775,13.825 Z M9.85526667,15.025 C10.6552667,15.025 11.2947333,15.6855333 11.2947333,16.4855333 C11.2947333,17.2855333 10.6344667,17.9458 9.85526667,17.9458 C9.05526667,17.9458 8.39473333,17.2855333 8.39473333,16.4655333 C8.39473333,15.6644667 9.05526667,15.025 9.85526667,15.025 Z M11.9144667,24.8052667 C11.875,24.925 11.7947333,25.0655333 11.7144667,25.1447333 C11.1947333,25.6844667 10.5542,26.0052667 9.79473333,26.0052667 C9.43446667,26.0052667 9.09473333,26.0052667 8.73446667,25.9447333 C8.1542,25.8644667 7.41446667,25.1447333 7.51446667,24.3844667 C7.59473333,23.8644667 7.675,23.3447333 7.7542,22.8239333 C7.91446667,21.9239333 8.07393333,21.0042 8.23446667,20.1042 C8.23446667,20.0436667 8.2542,19.9844667 8.2542,19.9239333 C8.2542,19.5436667 8.13446667,19.4042 7.7542,19.3636667 C7.59366667,19.3436667 7.43446667,19.3239333 7.27393333,19.2834 C7.09366667,19.2228667 6.99366667,19.0636667 7.01366667,18.9228667 C7.0334,18.7626 7.1334,18.6626 7.3334,18.6228667 C7.4334,18.6031333 7.55313333,18.6031333 7.67286667,18.6031333 L9.0126,18.6031333 L10.4323333,18.6031333 C10.7718,18.6031333 10.9718,18.7636667 10.9718,19.1031333 C10.9718,19.3834 10.9323333,19.6636667 10.8718,19.9426 C10.6915333,20.9823333 10.4915333,22.0031333 10.3115333,23.0426 C10.251,23.3823333 10.1718,23.7228667 10.1312667,24.0626 C10.1115333,24.2228667 10.1312667,24.4020667 10.1707333,24.5626 C10.2312667,24.7823333 10.3907333,24.9020667 10.6104667,24.8823333 C10.7907333,24.8626 10.9707333,24.8020667 11.1499333,24.7218 C11.2896667,24.6615333 11.4104667,24.5615333 11.5499333,24.5218 C11.7947333,24.4447333 11.975,24.5855333 11.9144667,24.8052667 Z" id="icon-info"></path>
                    </g>
                </g>
            </g>
        </g>
    </g>
</svg>