<?xml version="1.0" encoding="UTF-8" standalone="no"?>
<svg width="102px" height="20px" viewBox="0 0 102 20" version="1.1" xmlns="http://www.w3.org/2000/svg" xmlns:xlink="http://www.w3.org/1999/xlink">
    <!-- Generator: Sketch 41.2 (35397) - http://www.bohemiancoding.com/sketch -->
    <title>logo</title>
    <desc>Created with Sketch.</desc>
    <defs></defs>
    <g id="Dashboard" stroke="none" stroke-width="1" fill="none" fill-rule="evenodd">
        <g id="Setup-Wizard---1.-Welcome" transform="translate(-559.000000, -765.000000)" fill="#CCCCCC">
            <g id="Theme-Title" transform="translate(322.000000, 101.000000)">
                <path d="M336.189967,672.468153 C335.751919,671.612133 334.847862,671.023044 333.808662,671.023044 C332.769463,671.023044 331.870066,671.612133 331.432018,672.468153 L336.189967,672.468153 Z M273.819353,672.468153 C273.381305,671.612133 272.477248,671.023044 271.438048,671.023044 C270.398849,671.023044 269.499452,671.612133 269.061404,672.468153 L273.819353,672.468153 Z M321.403509,671.018442 C322.871436,671.018442 324.064419,672.19662 324.064419,673.650933 C324.064419,675.100644 322.871436,676.278822 321.403509,676.278822 C319.935581,676.278822 318.742599,675.100644 318.742599,673.650933 C318.742599,672.19662 319.935581,671.018442 321.403509,671.018442 L321.403509,671.018442 Z M288.358827,671.018442 C289.826754,671.018442 291.019737,672.19662 291.019737,673.650933 C291.019737,675.100644 289.826754,676.278822 288.358827,676.278822 C286.886239,676.278822 285.693257,675.100644 285.693257,673.650933 C285.693257,672.19662 286.886239,671.018442 288.358827,671.018442 L288.358827,671.018442 Z M308.756031,671.018442 C310.228618,671.018442 311.421601,672.19662 311.421601,673.650933 C311.421601,675.100644 310.228618,676.278822 308.756031,676.278822 C307.288103,676.278822 306.095121,675.100644 306.095121,673.650933 C306.095121,672.19662 307.288103,671.018442 308.756031,671.018442 L308.756031,671.018442 Z M243.011513,670.990829 C244.502741,670.990829 245.709704,672.182813 245.709704,673.650933 C245.709704,675.123656 244.502741,676.31564 243.011513,676.31564 C241.524945,676.31564 240.317982,675.123656 240.317982,673.650933 C240.317982,672.182813 241.524945,670.990829 243.011513,670.990829 L243.011513,670.990829 Z M298.480537,678.506315 L295.647204,678.506315 L295.647204,668.859984 L297.604441,668.859984 L298.252193,669.955321 C298.979167,669.01646 300.270011,668.616064 301.560855,668.616064 C302.129386,668.616064 302.693257,668.703507 303.215186,668.882995 L302.106086,671.368214 C300.451754,670.650262 298.774123,671.635145 298.480537,673.181503 L298.480537,678.506315 Z M278.330318,678.506315 L281.228893,678.506315 L281.228893,664 L278.330318,664 L278.330318,678.506315 Z M260.449561,671.704179 L262.50932,668.859984 L265.794682,668.859984 L262.215735,673.80741 L265.594298,678.506315 L262.304276,678.506315 L260.449561,675.933653 L258.385143,678.506315 L255.328125,678.506315 L258.702029,673.80741 L255.123081,668.859984 L258.408443,668.859984 L260.449561,671.704179 Z M250.500274,678.506315 L253.422149,678.506315 L253.422149,668.864586 L250.500274,668.864586 L250.500274,678.506315 Z M326.921053,678.506315 L324.754112,678.506315 L324.274123,677.751545 C323.407346,678.395861 322.330866,678.773246 321.165844,678.773246 C318.29989,678.773246 315.974507,676.476719 315.974507,673.650933 C315.974507,670.820545 318.29989,668.524019 321.165844,668.524019 C322.330866,668.524019 323.407346,668.906006 324.274123,669.550322 L324.274123,664 L326.921053,664 L326.921053,678.506315 Z M314.273575,678.506315 L312.353618,678.506315 L311.873629,677.567454 L311.868969,677.572056 L311.868969,677.562852 C310.964912,678.317622 309.79523,678.773246 308.518366,678.773246 C305.652412,678.773246 303.327029,676.476719 303.327029,673.650933 C303.327029,670.820545 305.652412,668.524019 308.518366,668.524019 C309.79989,668.524019 310.974232,668.984245 311.878289,669.748219 L312.339638,668.859984 L314.273575,668.859984 L314.273575,678.506315 Z M268.912281,674.483942 C269.266447,675.528654 270.263706,676.278822 271.438048,676.278822 C272.234923,676.278822 272.947917,675.933653 273.437226,675.390587 L275.222039,677.153251 C274.276042,678.151941 272.929276,678.773246 271.438048,678.773246 C268.576754,678.773246 266.251371,676.476719 266.251371,673.650933 C266.251371,670.820545 268.576754,668.524019 271.438048,668.524019 C274.304002,668.524019 276.629386,670.820545 276.629386,673.650933 C276.629386,673.936273 276.606086,674.212409 276.559485,674.483942 L273.963816,674.483942 L268.912281,674.483942 Z M331.282895,674.483942 C331.637061,675.528654 332.63432,676.278822 333.808662,676.278822 C334.605537,676.278822 335.318531,675.933653 335.80784,675.390587 L337.592654,677.153251 C336.646656,678.151941 335.29989,678.773246 333.808662,678.773246 C330.947368,678.773246 328.621985,676.476719 328.621985,673.650933 C328.621985,670.820545 330.947368,668.524019 333.808662,668.524019 C336.674616,668.524019 339,670.820545 339,673.650933 C339,673.936273 338.9767,674.212409 338.930099,674.483942 L331.282895,674.483942 Z M293.85307,678.506315 C293.620066,681.124999 291.392544,683.177606 288.685033,683.177606 C287.161184,683.177606 285.791118,682.528688 284.840461,681.49318 L286.629934,679.725913 C287.119243,680.3104 287.855537,680.683182 288.685033,680.683182 C290.152961,680.683182 291.345943,679.505005 291.345943,678.055294 L291.345943,677.659499 C290.460526,678.359042 289.337445,678.773246 288.116502,678.773246 C285.255208,678.773246 282.929825,676.476719 282.929825,673.650933 C282.929825,670.820545 285.255208,668.524019 288.116502,668.524019 C289.398026,668.524019 290.572368,668.984245 291.481086,669.748219 L291.937774,668.859984 L293.876371,668.859984 L293.876371,678.506315 L293.85307,678.506315 Z M239.65159,683.370901 L237,683.370901 L237,668.859984 L239.208882,668.859984 L239.64693,669.964525 C240.583607,669.071687 241.851151,668.524019 243.253838,668.524019 C246.119792,668.524019 248.445175,670.820545 248.445175,673.650933 C248.445175,676.481322 246.119792,678.777848 243.253838,678.777848 C241.855811,678.777848 240.583607,678.234782 239.65159,677.341944 L239.65159,683.370901 Z" id="logo"></path>
            </g>
        </g>
    </g>
</svg>